<svg width="727" height="594" viewBox="0 0 727 594" fill="none" xmlns="http://www.w3.org/2000/svg">
<path d="M614.39 78.7537C676.583 234.328 596.512 412.61 435.546 476.958C274.581 541.306 93.6752 467.352 31.4827 311.777C-30.7099 156.203 96.2317 248.037 257.197 183.69C418.163 119.342 552.198 -76.8207 614.39 78.7537Z" fill="#0973BA"/>
<path d="M352.445 196.262C378.857 196.262 400.269 174.617 400.269 147.916C400.269 121.215 378.857 99.5703 352.445 99.5703C326.032 99.5703 304.621 121.215 304.621 147.916C304.621 174.617 326.032 196.262 352.445 196.262Z" fill="#2F2E41"/>
<path d="M307.005 458.272L305.738 436.359L388.751 420.986L390.621 453.331L307.005 458.272Z" fill="#FFB8B8"/>
<path d="M311.026 420.337L313.47 462.601L287.146 464.157L283.164 395.282C286.621 395.078 290.083 395.564 293.354 396.712C296.625 397.861 299.641 399.65 302.228 401.976C304.815 404.303 306.924 407.122 308.433 410.272C309.943 413.423 310.824 416.843 311.026 420.337Z" fill="#2F2E41"/>
<path d="M343.11 458.071L329.321 475.029L258.052 429.335L278.402 404.307L343.11 458.071Z" fill="#FFB8B8"/>
<path d="M314.678 483.159L341.271 450.453L361.642 467.379L318.306 520.678C315.631 518.455 313.415 515.722 311.785 512.633C310.155 509.545 309.142 506.162 308.806 502.678C308.469 499.194 308.814 495.677 309.822 492.328C310.829 488.979 312.48 485.863 314.678 483.159Z" fill="#2F2E41"/>
<path d="M303.429 379.205L294.007 424.111C293.79 425.145 293.802 426.215 294.042 427.244C294.282 428.272 294.745 429.234 295.397 430.061C296.048 430.888 296.873 431.558 297.811 432.025C298.749 432.491 299.778 432.742 300.823 432.759L393.457 434.269C394.501 434.286 395.536 434.07 396.488 433.635C397.439 433.201 398.284 432.559 398.962 431.755C399.64 430.952 400.133 430.007 400.408 428.989C400.682 427.97 400.73 426.903 400.548 425.863L392.446 379.447C392.156 377.789 391.298 376.287 390.022 375.205C388.746 374.123 387.134 373.529 385.468 373.529H310.36C308.737 373.529 307.162 374.093 305.9 375.126C304.639 376.16 303.766 377.6 303.429 379.205Z" fill="#2F2E41"/>
<path d="M318.791 395.017C318.791 395.017 228.456 337.719 210.743 368.159C201.887 383.379 206.315 398.151 212.957 409.118C219.121 419.104 227.97 427.11 238.468 432.201L311.706 468.431L338.275 439.782L320.562 423.667L318.791 395.017Z" fill="#2F2E41"/>
<path d="M364.844 386.063C364.844 386.063 481.747 352.042 458.721 416.503C435.694 480.964 348.902 455.896 348.902 455.896L340.046 429.037L370.157 407.55L364.844 386.063Z" fill="#2F2E41"/>
<path d="M353.045 202.934C377.071 202.934 396.549 183.244 396.549 158.955C396.549 134.666 377.071 114.977 353.045 114.977C329.018 114.977 309.541 134.666 309.541 158.955C309.541 183.244 329.018 202.934 353.045 202.934Z" fill="#FFB8B8"/>
<path d="M355.324 393.17C337.246 392.894 319.262 390.498 301.73 386.032L301.212 385.889L276.936 273.002C274.752 263.082 276.237 252.697 281.11 243.808C285.983 234.92 293.908 228.143 303.386 224.757C332.665 214.138 364.577 213.493 394.252 222.923C404.209 226.167 412.591 233.086 417.724 242.301C422.857 251.516 424.365 262.349 421.946 272.638L394.831 385.794L394.449 385.978C383.18 391.374 369.089 393.17 355.324 393.17Z" fill="#CCCCCC"/>
<path d="M322.714 401.94C323.596 399.463 325.004 397.212 326.84 395.344C328.675 393.477 330.893 392.04 333.338 391.133C335.782 390.226 338.394 389.872 340.988 390.096C343.583 390.319 346.097 391.115 348.354 392.428L396.155 350.484L400.479 383.446L354.424 418.223C351.992 421.91 348.306 424.568 344.065 425.691C339.825 426.815 335.324 426.327 331.415 424.32C327.506 422.312 324.462 418.926 322.858 414.801C321.255 410.676 321.203 406.1 322.714 401.94Z" fill="#FFB8B8"/>
<path d="M368.303 411.088C367.526 411.087 366.752 410.973 366.007 410.747C364.798 410.391 363.69 409.748 362.777 408.87C361.864 407.993 361.172 406.907 360.76 405.704L354.99 389.18C354.45 387.653 354.381 385.996 354.793 384.428C355.205 382.861 356.078 381.457 357.297 380.402L422.424 340.876L396.751 225.095L397.404 224.936C397.67 224.869 423.974 218.817 434.753 247.874C442.301 268.224 470.234 312.473 468.263 342.374C467.889 348.356 465.531 354.035 461.571 358.495C457.611 362.954 452.28 365.935 446.438 366.955L373.128 409.415C371.747 410.497 370.05 411.086 368.303 411.088Z" fill="#CCCCCC"/>
<path d="M375.608 398.012C374.726 395.535 373.318 393.284 371.482 391.417C369.647 389.55 367.429 388.112 364.984 387.205C362.54 386.298 359.928 385.944 357.334 386.168C354.74 386.392 352.225 387.188 349.968 388.5L302.168 346.557L297.843 379.519L343.898 414.295C346.33 417.983 350.016 420.64 354.257 421.763C358.497 422.887 362.999 422.399 366.907 420.392C370.816 418.385 373.86 414.998 375.464 410.873C377.068 406.749 377.119 402.172 375.608 398.012Z" fill="#FFB8B8"/>
<path d="M334.815 411.089C333.068 411.086 331.371 410.498 329.991 409.415L251.367 370.537C245.525 369.517 240.194 366.536 236.234 362.076C232.274 357.617 229.916 351.938 229.542 345.956C227.571 316.055 260.818 268.225 268.366 247.875C279.144 218.818 305.448 224.868 305.714 224.936L306.367 225.096L275.38 344.458L345.822 380.402C347.04 381.457 347.913 382.861 348.325 384.429C348.737 385.996 348.668 387.653 348.128 389.18L342.359 405.705C341.946 406.908 341.254 407.994 340.341 408.871C339.429 409.748 338.321 410.392 337.112 410.748C336.366 410.973 335.593 411.088 334.815 411.089Z" fill="#CCCCCC"/>
<path d="M428.609 429.037H270.966C267.679 429.033 264.528 427.712 262.203 425.362C259.879 423.012 258.571 419.826 258.567 416.503V328.765C258.571 325.441 259.879 322.256 262.203 319.906C264.528 317.556 267.679 316.234 270.966 316.23H428.609C431.896 316.234 435.048 317.556 437.372 319.906C439.697 322.256 441.004 325.441 441.008 328.765V416.503C441.004 419.826 439.697 423.012 437.372 425.362C435.048 427.712 431.896 429.033 428.609 429.037Z" fill="#0973BA"/>
<path d="M349.788 383.378C355.657 383.378 360.415 378.568 360.415 372.634C360.415 366.701 355.657 361.891 349.788 361.891C343.918 361.891 339.16 366.701 339.16 372.634C339.16 378.568 343.918 383.378 349.788 383.378Z" fill="white"/>
<path d="M309.105 157.166C306.526 150.554 310.757 142.675 317.032 139.473C323.308 136.27 330.881 136.879 337.594 138.99C343.235 140.764 348.522 143.513 354.026 145.684C359.451 148.115 365.378 149.182 371.301 148.794C377.171 148.124 383.014 144.796 385.416 139.34C387.906 133.684 386.212 126.782 382.378 121.955C378.298 117.289 373.018 113.858 367.124 112.045C354.181 107.435 339.23 107.3 327.213 114.001C315.197 120.702 307.031 134.969 309.515 148.613" fill="#2F2E41"/>
</svg>
